<?xml version="1.0" encoding="UTF-8" standalone="no"?>
<!-- Creator: CorelDRAW X8 -->

<svg
   xmlns:dc="http://purl.org/dc/elements/1.1/"
   xmlns:cc="http://creativecommons.org/ns#"
   xmlns:rdf="http://www.w3.org/1999/02/22-rdf-syntax-ns#"
   xmlns:svg="http://www.w3.org/2000/svg"
   xmlns="http://www.w3.org/2000/svg"
   xmlns:sodipodi="http://sodipodi.sourceforge.net/DTD/sodipodi-0.dtd"
   xmlns:inkscape="http://www.inkscape.org/namespaces/inkscape"
   xml:space="preserve"
   width="2.13333in"
   height="2.13333in"
   version="1.1"
   style="shape-rendering:geometricPrecision; text-rendering:geometricPrecision; image-rendering:optimizeQuality; fill-rule:evenodd; clip-rule:evenodd"
   viewBox="0 0 2133 2133"
   id="svg171"
   sodipodi:docname="Lunastra-fixed.svg"
   inkscape:version="0.92.4 5da689c313, 2019-01-14"><metadata
   id="metadata175"><rdf:RDF><cc:Work
       rdf:about=""><dc:format>image/svg+xml</dc:format><dc:type
         rdf:resource="http://purl.org/dc/dcmitype/StillImage" /><dc:title /></cc:Work></rdf:RDF></metadata><sodipodi:namedview
   pagecolor="#ffffff"
   bordercolor="#666666"
   borderopacity="1"
   objecttolerance="10"
   gridtolerance="10"
   guidetolerance="10"
   inkscape:pageopacity="0"
   inkscape:pageshadow="2"
   inkscape:window-width="1920"
   inkscape:window-height="1028"
   id="namedview173"
   showgrid="false"
   inkscape:zoom="2.8284271"
   inkscape:cx="196.50148"
   inkscape:cy="-48.505851"
   inkscape:window-x="0"
   inkscape:window-y="22"
   inkscape:window-maximized="0"
   inkscape:current-layer="Layer_x0020_1" />
 <defs
   id="defs105">
  <style
   type="text/css"
   id="style103">
   <![CDATA[
    .fil4 {fill:#464876}
    .fil3 {fill:#464876}
    .fil0 {fill:#527493}
    .fil2 {fill:#527493}
    .fil5 {fill:#925851}
    .fil1 {fill:#D4BA35}
    .fil6 {fill:#464876;fill-rule:nonzero}
   ]]>
  </style>
 </defs>
 <g
   id="Layer_x0020_1">
  <metadata
   id="CorelCorpID_0Corel-Layer" />
  <path
   class="fil0"
   d="M999 1034c123,-123 172,-216 383,-216 184,0 333,-149 333,-333l317 -300 0 -50 -833 0 0 66 -83 0 -67 -66 -183 0 0 116c-78,33 -133,110 -133,200 0,58 22,111 59,150 1,0 2,1 3,2 0,0 0,1 1,1 70,72 203,165 203,264l0 166zm173 -765l500 100 -13 65 -500 -100 13 -65zm-283 142l267 267 -47 47 -267 -267 47 -47zm134 -133l433 433 -47 47 -433 -433 47 -47z"
   id="path108" />
  <polygon
   class="fil0"
   points="383,600 533,450 533,183 483,133 200,133 200,600 "
   id="polygon110" />
  <polygon
   class="fil1"
   points="683,233 800,233 800,67 600,67 600,150 "
   id="polygon112" />
  <rect
   class="fil2"
   x="1033"
   y="1367"
   width="99.9225"
   height="299.768"
   id="rect114" />
  <rect
   class="fil2"
   x="1199"
   y="1367"
   width="99.9225"
   height="233.153"
   id="rect116" />
  <rect
   class="fil2"
   x="1366"
   y="1367"
   width="66.615"
   height="233.153"
   id="rect118" />
  <rect
   class="fil3"
   x="1399"
   y="901"
   width="99.9225"
   height="366.383"
   id="rect120" />
  <rect
   class="fil2"
   x="100"
   y="1201"
   width="299.768"
   height="99.9225"
   id="rect122" />
  <rect
   class="fil1"
   x="898.99634"
   y="1865.7283"
   width="99.922501"
   height="133.23"
   id="rect124"
   style="fill:#d4ba35" />
  <polygon
   class="fil1"
   points="1116,2000 1166,1950 1166,1867 1033,1867 1033,2000 "
   id="polygon126"
   transform="translate(0,-1.041681)"
   style="fill:#d4ba35" />
  <polygon
   class="fil1"
   points="133,2000 250,2000 300,1950 300,1867 133,1867 "
   id="polygon128" />
  <polygon
   class="fil1"
   points="1116,201 1199,201 1199,35 999,35 999,85 "
   id="polygon130"
   transform="matrix(1.0052091,0,0,1,-6.2436694,0)"
   style="fill:#d4ba35" />
  <path
   class="fil4"
   d="M1932 1983c0,28 -37,50 -83,50l-1383 0 -66 67 1598 0c37,0 67,-30 67,-67l0 -982c0,-83 -75,-150 -166,-150l-215 0c146,91 246,271 248,478 0,3 0,5 0,7l0 8 0 589z"
   id="path132" />
  <polygon
   class="fil3"
   points="1199,1267 1332,1267 1332,901 1249,901 1199,951 "
   id="polygon134" />
  <polygon
   class="fil2"
   points="283,1684 633,1334 633,1467 350,1750 "
   id="polygon136" />
  <circle
   class="fil1"
   cx="366"
   cy="868"
   r="50"
   id="circle138" />
  <path
   class="fil5"
   d="m 601.73028,566.96325 c 25.51262,44.22701 23.47161,99.51078 -5.10252,141.72748 -29.59465,42.2167 -79.5994,65.33536 -131.64514,59.30441 -10.20504,-90.46435 47.96372,-175.90291 136.74766,-201.03189 z"
   id="path140"
   inkscape:connector-curvature="0"
   style="fill:#925851;stroke-width:1.0128032" />
  <path
   class="fil2"
   d="M300 1600l0 -233 -133 0 0 84c0,82 59,149 133,149z"
   id="path142" />
  <polygon
   class="fil2"
   points="1865,1634 1582,1751 1698,1867 1232,1867 1232,1933 1865,1933 "
   id="polygon144" />
  <path
   class="fil0"
   d="M300 768l166 0c-10,-90 47,-175 134,-200 25,44 23,99 -5,141 -14,20 -32,36 -53,46 52,-18 96,-54 124,-100l0 -137 0 -83 -66 0c-86,0 -144,233 -250,233l-150 0c-37,0 -67,30 -67,66l0 100 167 0 0 -66z"
   id="path146" />
  <path
   class="fil4"
   d="M1632 1234l-133 133 0 352 366 -152 0 -177 0 -4c0,-225 -127,-414 -300,-467l0 315 67 -67 167 167 -34 33 -133 -133z"
   id="path148" />
  <path
   class="fil2"
   d="m 176.00005,900.88396 c 10,0 20,3 29,7 -11,85 21,169.99984 86,225.99984 h -108 -116 v -116 c 0,-64.99984 48,-116.99984 109,-116.99984 z"
   id="path150"
   inkscape:connector-curvature="0"
   style="fill:#527493" />
  <path
   class="fil4"
   d="M350 1001l116 -117 0 -116c27,3 53,-2 76,-13 52,-18 96,-54 124,-100l0 -137c0,88 116,176 204,262 -12,-7 -24,-13 -37,-18l0 256c0,39 11,76 31,107 24,37 60,66 102,81l0 -39 166 -166 0 266c-128,0 -233,75 -233,167l0 433 -200 0 0 -117 0 -100 0 -133 0 -326c28,-16 52,-39 69,-66 20,-31 31,-68 31,-107l0 -256c-41,15 -76,43 -100,78l0 -72 -99 0 0 516 -234 233 0 -150 100 -100 0 -266 -66 0 -50 0zm608 -105c5,13 8,26 8,38l0 15c0,-18 -3,-36 -8,-53z"
   id="path152" />
  <path
   class="fil0"
   d="m 831.95461,760.95197 v 257.20343 c 0,39.1834 11.1723,76.3573 31.48558,107.503 24.37592,37.174 60.93981,66.3103 103.59769,81.3808 V 950.84045 c 0,-40.18804 -12.18796,-77.36198 -31.48558,-108.5077 -24.37592,-37.17395 -60.93981,-66.31027 -103.59769,-81.38078 z"
   id="path154"
   inkscape:connector-curvature="0"
   style="fill:#527493;stroke-width:1.01016748" />
  <path
   class="fil0"
   d="m 800.04288,760.95197 v 257.20343 c 0,39.1834 -11.1723,76.3573 -31.48558,107.503 -24.37592,37.174 -60.93981,66.3103 -103.59769,81.3808 V 950.84045 c 0,-40.18804 12.18796,-77.36198 32.50124,-108.5077 23.36026,-37.17395 59.92415,-66.31027 102.58203,-81.38078 z"
   id="path156"
   inkscape:connector-curvature="0"
   style="fill:#527493;stroke-width:1.01016748" />
  
  
  
  <path
   class="fil1"
   d="m 400.00005,1000.8838 h -50 -33 c -32,0 -66,-69.99984 -112,-92.99984 -11,85 21,169.99984 86,225.99984 h 109 z"
   id="path164"
   inkscape:connector-curvature="0"
   style="fill:#d4ba35" />
  <polygon
   class="fil2"
   points="333,1867 333,1933 849,1933 899,1884 899,1867 699,1867 699,1750 583,1867 "
   id="polygon166"
   transform="matrix(0.99815239,0,0,1,1.6573186,-1.0417311)"
   style="fill:#527493" />
  <polygon
   class="fil2"
   points="516,1834 699,1650 699,1517 450,1767 "
   id="polygon168"
   transform="translate(-13.536282)"
   style="fill:#527493" />
 <rect
   style="fill:#000000;fill-opacity:0.59585493;stroke:none;stroke-width:10.41505527"
   id="rect5884"
   width="546.79041"
   height="216.1124"
   x="1140.4485"
   y="243.96944" /><rect
   style="fill:#000000;fill-opacity:0.59585493;stroke:none;stroke-width:10.41505527"
   id="rect5886"
   width="518.14899"
   height="488.20569"
   x="965.99634"
   y="276.51648" /><rect
   style="fill:#000000;fill-opacity:0.59585493;stroke:none;stroke-width:10.41505527"
   id="rect5888"
   width="328.07422"
   height="220.01804"
   x="824.09125"
   y="393.68585" /></g>
</svg>