<?xml version="1.0" encoding="UTF-8"?>
<!DOCTYPE svg PUBLIC "-//W3C//DTD SVG 1.1//EN" "http://www.w3.org/Graphics/SVG/1.1/DTD/svg11.dtd">
<!-- Creator: CorelDRAW X8 -->
<svg xmlns="http://www.w3.org/2000/svg" xml:space="preserve" width="2.13333in" height="2.13333in" version="1.1" style="shape-rendering:geometricPrecision; text-rendering:geometricPrecision; image-rendering:optimizeQuality; fill-rule:evenodd; clip-rule:evenodd"
viewBox="0 0 2133 2133"
 xmlns:xlink="http://www.w3.org/1999/xlink">
 <defs>
  <style type="text/css">
   <![CDATA[
    .fil6 {fill:#518CCC}
    .fil3 {fill:#623F2F}
    .fil0 {fill:#8B5165}
    .fil5 {fill:#8D857D}
    .fil2 {fill:#9A8D70}
    .fil4 {fill:#AA402E}
    .fil1 {fill:#EEE3A7}
   ]]>
  </style>
 </defs>
 <g id="Layer_x0020_1">
  <metadata id="CorelCorpID_0Corel-Layer"/>
  <polygon class="fil0" points="717,1700 617,1800 367,1800 367,1900 900,1900 900,1833 850,1833 "/>
  <polygon class="fil0" points="633,1700 633,1483 483,1633 550,1700 "/>
  <polygon class="fil0" points="450,1600 633,1417 633,1367 550,1367 367,1550 417,1600 "/>
  <path class="fil0" d="M1000 1383l0 367c55,0 100,-45 100,-100l0 -317c-55,0 -100,23 -100,50z"/>
  <polygon class="fil0" points="1167,1333 1167,1633 1267,1633 1267,1333 "/>
  <polygon class="fil0" points="1333,1300 1333,1600 1400,1600 1400,1300 "/>
  <path class="fil0" d="M1767 1700l-134 0 0 100 34 33 -317 0 -50 50 0 50 200 0 33 -33 267 0c37,0 67,-30 67,-67l0 -233 -100 100z"/>
  <polygon class="fil1" points="300,1900 300,1800 167,1800 167,1967 233,1900 "/>
  <polygon class="fil1" points="1033,1833 1033,1933 1067,1900 1133,1900 1133,1833 "/>
  <polygon class="fil1" points="1167,1833 1167,1933 1200,1900 1267,1900 1267,1833 "/>
  <polygon class="fil1" points="233,1300 233,1233 300,1233 300,1300 367,1300 367,1233 350,1233 300,1183 283,1200 167,1200 167,1250 133,1283 133,1300 "/>
  <path class="fil1" d="M400 1050l0 183c0,37 45,67 100,67l0 -150 -100 -100z"/>
  <path class="fil1" d="M700 433l0 0zm167 -66l0 0zm-634 233c117,-117 217,-150 334,-267l33 0c55,0 100,45 100,100l100 0c37,0 67,-30 67,-66l0 -50 33 -34 -33 -33 0 -83 83 0c9,0 17,-8 17,-17 0,-9 7,-17 16,-17l67 0c4,0 8,2 11,4 3,4 6,8 6,13 0,9 7,17 16,17l97 0c17,-40 50,-67 87,-67l-284 0 -33 -33 -267 0 100 100 50 0 0 133 -50 0 -100 -100 -166 0 -284 283 0 117z"/>
  <path class="fil2" d="M933 283l0 684 100 0c134,0 267,-267 417,-267 166,0 350,-233 350,-317 0,-116 267,-216 267,-300l0 -50 -600 0c0,110 -104,200 -232,200l218 0 66 -66 381 0 -67 66 -286 0 -67 67 -347 0 0 -67 34 0c0,-24 4,-47 13,-66l-97 0c-9,0 -16,-8 -16,-17 0,-5 -3,-9 -6,-13 -73,16 -128,76 -128,146zm200 464l-100 -100 0 -230 67 66 0 136 100 100 0 114 -67 -66 0 -20zm0 -347l-66 -67 180 0 200 200 53 0 67 67 -148 0 -200 -200 -86 0z"/>
  <path class="fil2" d="M600 367l0 0zm67 66l0 0zm-234 100l167 -166c37,0 67,30 67,66l33 0c0,-55 -45,-100 -100,-100l-33 0c-117,117 -217,150 -334,267l-33 33c88,-1 172,-37 233,-100z"/>
  <polygon class="fil2" points="283,367 500,150 500,100 433,100 433,200 400,200 400,100 333,100 333,233 300,233 300,167 233,167 233,367 "/>
  <polygon class="fil1" points="300,933 233,933 233,967 200,967 200,933 133,933 133,1033 167,1000 233,1000 233,1033 267,1000 300,1000 "/>
  <path class="fil3" d="M500 767l0 0zm-167 0l167 0c0,-37 30,-67 67,-67l33 0c73,0 133,-60 133,-133 -92,0 -166,15 -166,33 0,18 -15,33 -34,33 -18,0 -33,-15 -33,-33l-67 0 0 -67c-61,63 -145,99 -233,100l0 117 33 33 0 50c-33,-66 -100,-33 -133,-100l0 200 33 0 67 0 0 34 33 0 0 -34 67 0 0 67 17 0 33 33 50 0 0 -133 100 0 0 -33 -33 -34 -167 0 -33 -33 33 -33 33 0zm0 -67c19,0 34,15 34,33 0,19 -15,34 -34,34 -18,0 -33,-15 -33,-34 0,-18 15,-33 33,-33z"/>
  <polygon class="fil4" points="500,900 400,900 400,1033 500,1033 "/>
  <path class="fil4" d="M333 1067c-147,0 -266,59 -266,133l100 0 116 0 17 -17 33 -33 0 -83z"/>
  <polygon class="fil4" points="367,1367 150,1367 167,1383 67,1483 67,1533 333,1533 500,1367 500,1333 400,1333 "/>
  <path class="fil4" d="M700 1317l0 300 150 150 83 0 0 -417c0,-55 90,-100 200,-100l0 -233 -50 50 -183 0 0 150c-111,0 -200,44 -200,100z"/>
  <path class="fil4" d="M767 1200l33 0c18,0 33,-15 33,-33l0 -134c-36,0 -66,30 -66,67l0 100z"/>
  <polygon class="fil4" points="1200,950 1200,1267 1300,1267 1300,850 "/>
  <polygon class="fil4" points="1367,833 1367,1233 1467,1233 1467,833 "/>
  <path class="fil4" d="M1533 767l0 400 200 0c19,0 34,15 34,33l0 200c0,18 -15,33 -34,33 -18,0 -33,-15 -33,-33l0 -167 -200 0c-18,0 -33,15 -33,34l0 350c0,46 37,83 83,83 46,0 83,-37 83,-83l134 0c55,0 100,-45 100,-100l0 -434 -167 -166 0 -150 -167 0z"/>
  <path class="fil4" d="M1933 1083l0 817c0,55 -60,100 -133,100l-1200 0c-74,0 -133,45 -133,100l1466 0c55,0 100,-45 100,-100l0 -1083 -150 -150 -116 0 0 150 166 166z"/>
  <path class="fil3" d="M367 1367l33 -34 100 0 0 -33c-55,0 -100,-30 -100,-67l-33 0 0 67 -67 0 0 -67 -67 0 0 67 -100 0 0 50 17 17 217 0z"/>
  <polygon class="fil3" points="1033,417 1033,647 1133,747 1133,767 1200,833 1200,719 1100,619 1100,483 "/>
  <polygon class="fil3" points="1219,400 1419,600 1567,600 1500,533 1447,533 1247,333 1067,333 1133,400 "/>
  <path class="fil3" d="M1133 300l347 0 67 -67 286 0 67 -66 -381 0 -66 66 -218 0c-1,0 -1,0 -2,0l-66 0 -34 0 0 67z"/>
  <path class="fil5" d="M2067 33l0 50c0,84 -267,184 -267,300 0,84 -184,317 -350,317 -150,0 -283,267 -417,267l-100 0 0 33 100 0c134,0 267,-267 417,-267 166,0 383,-233 383,-316 0,-117 267,-217 267,-300l0 -84 -33 0z"/>
  <path class="fil4" d="M733 567l0 0zm100 0c37,0 67,44 67,100l0 333 33 0 0 -33 0 -684c0,-70 55,-130 128,-146 -3,-2 -7,-4 -11,-4l-67 0c-9,0 -16,8 -16,17 0,9 -8,17 -17,17l-83 0 0 83 33 33 -33 34 0 50 0 166c-37,0 -67,-30 -67,-66l-250 0 -50 50 0 83c0,18 15,33 33,33 19,0 34,-15 34,-33 0,-18 74,-33 166,-33 0,73 -60,133 -133,133l-33 0c-37,0 -67,30 -67,67l67 0 0 533 66 0c37,0 67,-30 67,-67l0 -200c0,-33 133,-33 133,-66l0 -400z"/>
  <circle class="fil6" cx="333" cy="733" r="33"/>
 </g>
</svg>
