<?xml version="1.0" encoding="UTF-8" standalone="no"?>
<!-- Creator: CorelDRAW X8 -->

<svg
   xmlns:dc="http://purl.org/dc/elements/1.1/"
   xmlns:cc="http://creativecommons.org/ns#"
   xmlns:rdf="http://www.w3.org/1999/02/22-rdf-syntax-ns#"
   xmlns:svg="http://www.w3.org/2000/svg"
   xmlns="http://www.w3.org/2000/svg"
   xmlns:sodipodi="http://sodipodi.sourceforge.net/DTD/sodipodi-0.dtd"
   xmlns:inkscape="http://www.inkscape.org/namespaces/inkscape"
   xml:space="preserve"
   width="2.13333in"
   height="2.13333in"
   version="1.1"
   style="shape-rendering:geometricPrecision; text-rendering:geometricPrecision; image-rendering:optimizeQuality; fill-rule:evenodd; clip-rule:evenodd"
   viewBox="0 0 2133 2133"
   id="svg404"
   sodipodi:docname="Teostra.svg"
   inkscape:version="0.92.4 5da689c313, 2019-01-14"><metadata
   id="metadata408"><rdf:RDF><cc:Work
       rdf:about=""><dc:format>image/svg+xml</dc:format><dc:type
         rdf:resource="http://purl.org/dc/dcmitype/StillImage" /></cc:Work></rdf:RDF></metadata><sodipodi:namedview
   pagecolor="#ffffff"
   bordercolor="#666666"
   borderopacity="1"
   objecttolerance="10"
   gridtolerance="10"
   guidetolerance="10"
   inkscape:pageopacity="0"
   inkscape:pageshadow="2"
   inkscape:window-width="1920"
   inkscape:window-height="1026"
   id="namedview406"
   showgrid="false"
   inkscape:zoom="16"
   inkscape:cx="22.680077"
   inkscape:cy="132.80921"
   inkscape:window-x="0"
   inkscape:window-y="22"
   inkscape:window-maximized="0"
   inkscape:current-layer="Layer_x0020_1" />
 <defs
   id="defs332">
  <style
   type="text/css"
   id="style330">
   <![CDATA[
    .fil6 {fill:#518CCC}
    .fil3 {fill:#623F2F}
    .fil0 {fill:#8B5165}
    .fil5 {fill:#8D857D}
    .fil2 {fill:#9A8D70}
    .fil4 {fill:#AA402E}
    .fil1 {fill:#EEE3A7}
   ]]>
  </style>
 </defs>
 <g
   id="Layer_x0020_1">
  <metadata
   id="CorelCorpID_0Corel-Layer" />
  <polygon
   class="fil0"
   points="717,1700 617,1800 367,1800 367,1900 900,1900 900,1833 850,1833 "
   id="polygon335" />
  <polygon
   class="fil0"
   points="633,1700 633,1483 483,1633 550,1700 "
   id="polygon337" />
  <polygon
   class="fil0"
   points="450,1600 633,1417 633,1367 550,1367 367,1550 417,1600 "
   id="polygon339" />
  <path
   class="fil0"
   d="M1000 1383l0 367c55,0 100,-45 100,-100l0 -317c-55,0 -100,23 -100,50z"
   id="path341" />
  <polygon
   class="fil0"
   points="1167,1333 1167,1633 1267,1633 1267,1333 "
   id="polygon343" />
  <polygon
   class="fil0"
   points="1333,1300 1333,1600 1400,1600 1400,1300 "
   id="polygon345" />
  <path
   class="fil0"
   d="M1767 1700l-134 0 0 100 34 33 -317 0 -50 50 0 50 200 0 33 -33 267 0c37,0 67,-30 67,-67l0 -233 -100 100z"
   id="path347" />
  <polygon
   class="fil1"
   points="300,1900 300,1800 167,1800 167,1967 233,1900 "
   id="polygon349" />
  <polygon
   class="fil1"
   points="1033,1833 1033,1933 1067,1900 1133,1900 1133,1833 "
   id="polygon351" />
  <polygon
   class="fil1"
   points="1167,1833 1167,1933 1200,1900 1267,1900 1267,1833 "
   id="polygon353" />
  
  <path
   class="fil1"
   d="M400 1050l0 183c0,37 45,67 100,67l0 -150 -100 -100z"
   id="path357" />
  <path
   style="fill:#eee3a7;stroke-width:0.09601485"
   d="M 65.578125 6.4335938 L 75.179688 16.035156 L 79.980469 16.035156 L 79.980469 28.804688 L 75.179688 28.804688 L 65.578125 19.203125 L 49.640625 19.203125 L 22.371094 46.375 L 22.371094 57.609375 L 19.203125 60.777344 C 27.652432 60.681329 35.717313 57.224717 41.574219 51.175781 L 57.609375 35.238281 C 61.161925 35.238281 64.041016 38.117684 64.041016 41.574219 L 67.210938 41.574219 L 76.8125 41.574219 C 80.36505 41.574219 83.244141 38.694816 83.244141 35.238281 L 83.244141 30.4375 L 86.414062 27.171875 L 83.244141 24.003906 L 83.244141 16.035156 L 91.214844 16.035156 C 92.078977 16.035156 92.845703 15.266477 92.845703 14.402344 C 92.845703 13.53821 93.518679 12.769531 94.382812 12.769531 L 100.81641 12.769531 C 101.20047 12.769531 101.58305 12.962267 101.87109 13.154297 C 102.15914 13.538356 102.44727 13.922269 102.44727 14.402344 C 102.44727 15.266477 103.12024 16.035156 103.98438 16.035156 L 113.29688 16.035156 C 114.92913 12.194562 118.09784 9.6015625 121.65039 9.6015625 L 94.382812 9.6015625 L 91.214844 6.4335938 L 65.578125 6.4335938 z "
   transform="scale(10.415055)"
   id="path359" />
  <path
   class="fil2"
   d="M933 283l0 684 100 0c134,0 267,-267 417,-267 166,0 350,-233 350,-317 0,-116 267,-216 267,-300l0 -50 -600 0c0,110 -104,200 -232,200l218 0 66 -66 381 0 -67 66 -286 0 -67 67 -347 0 0 -67 34 0c0,-24 4,-47 13,-66l-97 0c-9,0 -16,-8 -16,-17 0,-5 -3,-9 -6,-13 -73,16 -128,76 -128,146zm200 464l-100 -100 0 -230 67 66 0 136 100 100 0 114 -67 -66 0 -20zm0 -347l-66 -67 180 0 200 200 53 0 67 67 -148 0 -200 -200 -86 0z"
   id="path361" />
  
  <polygon
   class="fil2"
   points="283,367 500,150 500,100 433,100 433,200 400,200 400,100 333,100 333,233 300,233 300,167 233,167 233,367 "
   id="polygon365" />
  <path
   style="fill:#aa402e;stroke-width:0.09601485;fill-opacity:1"
   d="M 94.382812 12.769531 C 93.518685 12.769531 92.845703 13.53821 92.845703 14.402344 C 92.845703 15.266477 92.078977 16.035156 91.214844 16.035156 L 83.244141 16.035156 L 83.244141 24.003906 L 86.414062 27.171875 L 83.244141 30.4375 L 83.244141 35.238281 L 83.244141 51.175781 L 83.242188 51.175781 L 83.242188 55.759766 C 85.138124 57.413685 86.414063 60.468173 86.414062 64.041016 L 86.414062 96.015625 L 89.582031 96.015625 L 89.582031 92.845703 L 89.582031 27.171875 C 89.582031 20.450835 94.862033 14.690535 101.87109 13.154297 C 101.58305 12.962267 101.20047 12.769531 100.81641 12.769531 L 94.382812 12.769531 z M 52.808594 44.839844 L 48.007812 49.640625 L 48.007812 57.609375 L 41.574219 57.609375 L 41.574219 51.175781 C 35.717313 57.224717 27.652432 60.681329 19.203125 60.777344 L 19.203125 72.011719 L 22.371094 75.179688 L 22.371094 79.980469 C 19.202604 73.643488 12.770053 76.811901 9.6015625 70.378906 L 9.6015625 89.582031 L 12.769531 89.582031 L 12.769531 99.183594 L 16.035156 96.015625 L 22.371094 96.015625 L 22.371094 99.183594 L 25.636719 96.015625 L 28.804688 96.015625 L 30.4375 96.015625 L 33.605469 99.183594 L 38.40625 99.183594 L 48.007812 99.183594 L 48.007812 86.414062 L 48.007812 83.244141 L 44.839844 79.980469 L 28.804688 79.980469 L 25.636719 76.8125 L 28.804688 73.642578 L 31.1875 73.642578 L 31.1875 73.492188 C 29.834851 73.1342 28.804687 71.912724 28.804688 70.378906 C 28.804688 68.650639 30.244389 67.210937 31.972656 67.210938 C 33.796938 67.210938 35.238281 68.650639 35.238281 70.378906 C 35.238281 71.893346 34.227128 73.098234 32.84375 73.472656 L 32.84375 73.642578 L 48.007812 73.642578 L 54.439453 73.642578 L 54.439453 124.81836 L 60.777344 124.81836 C 64.329893 124.81836 67.210937 121.93927 67.210938 118.38672 L 67.210938 99.183594 C 67.210938 96.015104 79.980469 96.014193 79.980469 92.845703 L 79.980469 58.427734 L 79.980469 54.439453 L 79.980469 50.283203 C 78.086383 49.171222 76.8125 47.13574 76.8125 44.839844 L 52.808594 44.839844 z "
   transform="scale(10.415055)"
   id="polygon367" />
  
  
  <path
   class="fil4"
   d="M333 1067c-147,0 -266,59 -266,133l100 0 116 0 17 -17 33 -33 0 -83z"
   id="path373" />
  <polygon
   class="fil4"
   points="367,1367 150,1367 167,1383 67,1483 67,1533 333,1533 500,1367 500,1333 400,1333 "
   id="polygon375" />
  <path
   class="fil4"
   d="M700 1317l0 300 150 150 83 0 0 -417c0,-55 90,-100 200,-100l0 -233 -50 50 -183 0 0 150c-111,0 -200,44 -200,100z"
   id="path377" />
  <path
   class="fil4"
   d="M767 1200l33 0c18,0 33,-15 33,-33l0 -134c-36,0 -66,30 -66,67l0 100z"
   id="path379" />
  <polygon
   class="fil4"
   points="1200,950 1200,1267 1300,1267 1300,850 "
   id="polygon381" />
  <polygon
   class="fil4"
   points="1367,833 1367,1233 1467,1233 1467,833 "
   id="polygon383" />
  <path
   class="fil4"
   d="M1533 767l0 400 200 0c19,0 34,15 34,33l0 200c0,18 -15,33 -34,33 -18,0 -33,-15 -33,-33l0 -167 -200 0c-18,0 -33,15 -33,34l0 350c0,46 37,83 83,83 46,0 83,-37 83,-83l134 0c55,0 100,-45 100,-100l0 -434 -167 -166 0 -150 -167 0z"
   id="path385" />
  <path
   class="fil4"
   d="M1933 1083l0 817c0,55 -60,100 -133,100l-1200 0c-74,0 -133,45 -133,100l1466 0c55,0 100,-45 100,-100l0 -1083 -150 -150 -116 0 0 150 166 166z"
   id="path387" />
  <path
   class="fil3"
   d="M367 1367l33 -34 100 0 0 -33c-55,0 -100,-30 -100,-67l-33 0 0 67 -67 0 0 -67 -67 0 0 67 -100 0 0 50 17 17 217 0z"
   id="path389" />
  <polygon
   class="fil3"
   points="1033,417 1033,647 1133,747 1133,767 1200,833 1200,719 1100,619 1100,483 "
   id="polygon391" />
  <polygon
   class="fil3"
   points="1219,400 1419,600 1567,600 1500,533 1447,533 1247,333 1067,333 1133,400 "
   id="polygon393" />
  <path
   class="fil3"
   d="M1133 300l347 0 67 -67 286 0 67 -66 -381 0 -66 66 -218 0c-1,0 -1,0 -2,0l-66 0 -34 0 0 67z"
   id="path395" />
  <path
   class="fil5"
   d="M2067 33l0 50c0,84 -267,184 -267,300 0,84 -184,317 -350,317 -150,0 -283,267 -417,267l-100 0 0 33 100 0c134,0 267,-267 417,-267 166,0 383,-233 383,-316 0,-117 267,-217 267,-300l0 -84 -33 0z"
   id="path397" />
  
  
 <rect
   style="fill:#aa402e;fill-opacity:0.29533678;stroke-width:10.41505527"
   id="rect4962"
   width="271.44238"
   height="176.73047"
   x="845.89777"
   y="122.24348" /></g>
</svg>